<?xml version="1.0" standalone="no"?>
<!DOCTYPE svg PUBLIC "-//W3C//DTD SVG 20010904//EN"
 "http://www.w3.org/TR/2001/REC-SVG-20010904/DTD/svg10.dtd">
<svg version="1.0" xmlns="http://www.w3.org/2000/svg"
 width="549.000000pt" height="549.000000pt" viewBox="0 0 549.000000 549.000000"
 preserveAspectRatio="xMidYMid meet">
<metadata>
Created by potrace 1.11, written by Peter Selinger 2001-2013
</metadata>
<g transform="translate(0.000000,549.000000) scale(0.100000,-0.100000)"
fill="#000000" stroke="none">
<path d="M665 4000 l39 -39 145 -3 145 -3 143 -255 c79 -140 243 -435 365
-654 l222 -399 -48 -91 c-78 -145 -548 -990 -559 -1003 -7 -10 -63 -13 -217
-13 l-207 0 -32 -40 -32 -40 531 0 530 0 0 40 0 40 -235 0 c-129 0 -235 4
-235 9 0 10 536 981 549 994 10 10 561 -964 561 -991 0 -8 -24 -12 -70 -12
l-70 0 0 -40 0 -39 263 -4 c144 -3 267 -5 272 -5 6 0 134 3 285 6 l275 7 3 38
3 37 -75 0 c-47 0 -76 4 -76 11 0 8 202 378 488 892 l60 109 25 -44 c89 -155
527 -956 527 -963 0 -3 -103 -5 -230 -5 l-230 0 0 -40 0 -40 536 0 536 0 -32
40 -32 40 -223 0 -223 0 -225 408 c-373 676 -382 692 -370 711 5 9 134 241
285 516 152 275 312 563 355 640 l78 140 156 3 156 2 32 40 32 40 -531 0 -530
0 0 -40 0 -40 120 0 c67 0 120 -4 120 -9 0 -10 -477 -900 -490 -914 -4 -5 -24
22 -45 60 -21 37 -66 118 -100 178 -139 245 -365 662 -365 673 0 9 38 12 130
12 l130 0 0 40 0 40 -545 0 -545 0 0 -40 0 -40 130 0 c72 0 130 -2 130 -5 0
-3 -33 -65 -73 -138 -41 -73 -127 -229 -192 -347 -163 -297 -245 -440 -253
-440 -4 0 -54 87 -112 193 -57 105 -133 244 -168 307 -96 171 -222 411 -222
421 0 5 59 9 130 9 l130 0 0 40 0 40 -532 0 -532 0 39 -40z"/>
</g>
</svg>
